<?xml version="1.0" encoding="UTF-8"?>
<svg xmlns="http://www.w3.org/2000/svg" xmlns:xlink="http://www.w3.org/1999/xlink" width="2836" height="2836" viewBox="0 0 2836 2836">
<path fill-rule="evenodd" fill="rgb(100%, 100%, 100%)" fill-opacity="1" d="M 0.882812 0.46875 L 2835.53125 0.46875 L 2835.53125 2835.117188 L 0.882812 2835.117188 L 0.882812 0.46875 "/>
<path fill-rule="nonzero" fill="rgb(13.729858%, 12.159729%, 12.548828%)" fill-opacity="1" d="M 664.710938 2403.84375 L 878.453125 2403.84375 L 878.453125 1806.480469 L 664.710938 1806.480469 Z M 928.445312 1407.511719 L 1218.449219 1407.511719 C 1235.261719 1407.511719 1250.519531 1414.371094 1261.558594 1425.421875 C 1272.609375 1436.460938 1279.46875 1451.71875 1279.46875 1468.53125 L 1279.46875 1615.769531 L 1499.640625 1615.769531 L 1499.640625 1495.171875 C 1499.640625 1482.78125 1509.691406 1472.730469 1522.078125 1472.730469 L 1856.488281 1472.730469 L 1856.488281 1375.96875 L 1716.980469 1375.96875 C 1704.589844 1375.96875 1694.550781 1365.921875 1694.550781 1353.53125 L 1694.550781 1227.339844 C 1694.550781 1214.949219 1704.589844 1204.898438 1716.980469 1204.898438 L 1958.179688 1204.898438 C 1970.570312 1204.898438 1980.609375 1214.949219 1980.609375 1227.339844 L 1980.609375 1353.53125 C 1980.609375 1365.921875 1970.570312 1375.96875 1958.179688 1375.96875 L 1901.359375 1375.96875 L 1901.359375 1472.730469 L 1958.179688 1472.730469 C 1970.570312 1472.730469 1980.609375 1482.78125 1980.609375 1495.171875 L 1980.609375 1615.769531 L 2070.371094 1615.769531 L 2070.371094 1103.910156 C 2035.808594 1099.03125 2004.851562 1082.910156 1981.308594 1059.371094 C 1972.25 1050.308594 1964.300781 1040.160156 1957.660156 1029.121094 C 1951.019531 1040.160156 1943.058594 1050.308594 1934 1059.371094 C 1905.53125 1087.851562 1866.191406 1105.46875 1822.738281 1105.46875 C 1779.289062 1105.46875 1739.949219 1087.851562 1711.480469 1059.371094 C 1702.429688 1050.308594 1694.46875 1040.160156 1687.828125 1029.121094 C 1681.191406 1040.160156 1673.230469 1050.308594 1664.179688 1059.371094 C 1635.699219 1087.851562 1596.359375 1105.46875 1552.910156 1105.46875 C 1509.46875 1105.46875 1470.128906 1087.851562 1441.648438 1059.371094 C 1432.601562 1050.320312 1424.640625 1040.160156 1418 1029.121094 C 1411.359375 1040.160156 1403.398438 1050.320312 1394.351562 1059.371094 C 1365.871094 1087.851562 1326.53125 1105.46875 1283.089844 1105.46875 C 1239.640625 1105.46875 1200.300781 1087.851562 1171.820312 1059.371094 C 1162.769531 1050.308594 1154.808594 1040.160156 1148.171875 1029.121094 C 1141.53125 1040.160156 1133.578125 1050.308594 1124.519531 1059.371094 C 1096.050781 1087.851562 1056.710938 1105.46875 1013.261719 1105.46875 C 969.808594 1105.46875 930.472656 1087.851562 901.996094 1059.371094 C 892.941406 1050.308594 884.988281 1040.160156 878.347656 1029.121094 C 871.703125 1040.160156 863.746094 1050.308594 854.691406 1059.371094 C 831.210938 1082.859375 800.339844 1098.949219 765.867188 1103.878906 L 765.867188 1615.769531 L 865.84375 1615.769531 L 865.84375 1470.109375 C 865.84375 1452.871094 872.878906 1437.21875 884.214844 1425.878906 C 895.550781 1414.550781 911.203125 1407.511719 928.445312 1407.511719 Z M 1218.449219 1452.378906 L 928.445312 1452.378906 C 923.59375 1452.378906 919.164062 1454.390625 915.941406 1457.609375 C 912.71875 1460.828125 910.714844 1465.261719 910.714844 1470.109375 L 910.714844 1615.769531 L 1234.601562 1615.769531 L 1234.601562 1468.53125 C 1234.601562 1464.109375 1232.769531 1460.078125 1229.839844 1457.140625 C 1226.898438 1454.210938 1222.871094 1452.378906 1218.449219 1452.378906 Z M 1935.738281 1249.769531 L 1739.421875 1249.769531 L 1739.421875 1331.101562 L 1935.738281 1331.101562 Z M 1935.738281 1517.601562 L 1544.511719 1517.601562 L 1544.511719 1615.769531 L 1935.738281 1615.769531 Z M 600.0625 1615.769531 L 720.996094 1615.769531 L 720.996094 1103.878906 C 686.523438 1098.949219 655.648438 1082.859375 632.167969 1059.371094 C 603.695312 1030.898438 586.078125 991.550781 586.078125 948.101562 L 586.085938 947.570312 L 586.089844 947.519531 L 586.089844 947.441406 L 586.101562 947.179688 L 586.105469 947.050781 L 586.109375 946.941406 L 586.109375 946.921875 L 586.113281 946.898438 L 586.132812 946.539062 L 586.144531 946.410156 L 586.144531 946.371094 L 586.152344 946.28125 L 586.164062 946.148438 L 586.1875 945.890625 L 586.195312 945.800781 L 586.199219 945.769531 L 586.214844 945.640625 L 586.226562 945.511719 L 586.242188 945.378906 L 586.257812 945.261719 L 586.261719 945.238281 L 586.277344 945.128906 L 586.277344 945.121094 L 586.3125 944.878906 L 586.328125 944.75 L 586.339844 944.679688 L 586.347656 944.621094 L 586.367188 944.5 L 586.390625 944.371094 L 586.429688 944.128906 L 586.433594 944.121094 L 586.453125 944 L 586.476562 943.871094 L 586.503906 943.75 L 586.527344 943.628906 L 586.535156 943.578125 L 586.554688 943.5 L 586.578125 943.378906 L 586.605469 943.261719 L 586.632812 943.128906 L 586.6875 942.890625 L 586.71875 942.769531 L 586.746094 942.640625 L 586.78125 942.519531 L 586.8125 942.398438 L 586.84375 942.28125 L 586.875 942.160156 L 586.910156 942.039062 L 586.980469 941.800781 L 587.050781 941.558594 L 587.121094 941.320312 L 587.199219 941.078125 C 587.304688 940.769531 587.417969 940.449219 587.535156 940.140625 C 600.746094 895.71875 613.921875 851.289062 627.09375 806.859375 C 640.386719 762.019531 653.6875 717.171875 667.019531 672.351562 L 747.160156 402.789062 C 750.023438 393.039062 758.953125 386.71875 768.632812 386.71875 L 768.632812 386.671875 L 2067.210938 386.671875 C 2077.789062 386.671875 2086.671875 394.011719 2089.03125 403.871094 C 2107.140625 464.429688 2132.078125 548.300781 2156.960938 631.941406 L 2168.980469 672.351562 C 2182.25 716.96875 2195.488281 761.621094 2208.730469 806.261719 C 2221.960938 850.890625 2235.199219 895.53125 2248.46875 940.140625 C 2249.410156 942.621094 2249.921875 945.300781 2249.921875 948.101562 C 2249.921875 991.550781 2232.300781 1030.898438 2203.828125 1059.371094 C 2180.398438 1082.800781 2149.621094 1098.878906 2115.25 1103.839844 L 2115.25 1615.769531 L 2236.179688 1615.769531 C 2250.660156 1615.769531 2263.800781 1621.679688 2273.320312 1631.191406 C 2282.828125 1640.699219 2288.738281 1653.851562 2288.738281 1668.328125 L 2288.738281 1753.921875 C 2288.738281 1768.390625 2282.828125 1781.539062 2273.320312 1791.050781 C 2263.800781 1800.570312 2250.660156 1806.480469 2236.179688 1806.480469 L 2216.398438 1806.480469 L 2216.398438 2426.277344 C 2216.398438 2438.671875 2206.359375 2448.714844 2193.96875 2448.714844 L 642.273438 2448.714844 C 629.882812 2448.714844 619.839844 2438.671875 619.839844 2426.277344 L 619.839844 1806.480469 L 600.0625 1806.480469 C 585.582031 1806.480469 572.4375 1800.570312 562.921875 1791.050781 C 553.410156 1781.539062 547.503906 1768.390625 547.503906 1753.921875 L 547.503906 1668.328125 C 547.503906 1653.851562 553.410156 1640.699219 562.921875 1631.191406 C 572.4375 1621.679688 585.582031 1615.769531 600.0625 1615.769531 Z M 2236.179688 1660.640625 L 600.0625 1660.640625 C 597.96875 1660.640625 596.050781 1661.511719 594.648438 1662.921875 C 593.246094 1664.320312 592.371094 1666.238281 592.371094 1668.328125 L 592.371094 1753.921875 C 592.371094 1756.011719 593.246094 1757.929688 594.648438 1759.328125 C 596.050781 1760.730469 597.96875 1761.601562 600.0625 1761.601562 L 2236.179688 1761.601562 C 2238.269531 1761.601562 2240.191406 1760.730469 2241.589844 1759.328125 C 2242.988281 1757.929688 2243.871094 1756.011719 2243.871094 1753.921875 L 2243.871094 1668.328125 C 2243.871094 1666.238281 2242.988281 1664.320312 2241.589844 1662.921875 C 2240.191406 1661.511719 2238.269531 1660.640625 2236.179688 1660.640625 Z M 2172.109375 1027.648438 C 2187.421875 1012.328125 2198.339844 992.601562 2202.808594 970.53125 L 1982.328125 970.53125 C 1986.789062 992.601562 1997.71875 1012.320312 2013.03125 1027.648438 C 2033.390625 1048 2061.511719 1060.589844 2092.570312 1060.589844 C 2123.628906 1060.589844 2151.75 1048 2172.109375 1027.648438 Z M 1902.28125 1027.648438 C 1917.601562 1012.320312 1928.519531 992.601562 1932.980469 970.53125 L 1712.5 970.53125 C 1716.96875 992.601562 1727.890625 1012.320312 1743.210938 1027.648438 C 1763.558594 1048 1791.679688 1060.589844 1822.738281 1060.589844 C 1853.800781 1060.589844 1881.921875 1048 1902.28125 1027.648438 Z M 1632.449219 1027.648438 C 1647.769531 1012.320312 1658.691406 992.601562 1663.148438 970.53125 L 1442.671875 970.53125 C 1447.140625 992.601562 1458.058594 1012.328125 1473.378906 1027.648438 C 1493.730469 1048 1521.851562 1060.589844 1552.910156 1060.589844 C 1583.980469 1060.589844 1612.089844 1048 1632.449219 1027.648438 Z M 1362.621094 1027.648438 C 1377.941406 1012.328125 1388.859375 992.601562 1393.328125 970.53125 L 1172.851562 970.53125 C 1177.308594 992.601562 1188.230469 1012.320312 1203.550781 1027.648438 C 1223.898438 1048 1252.03125 1060.589844 1283.089844 1060.589844 C 1314.148438 1060.589844 1342.269531 1048 1362.621094 1027.648438 Z M 1092.789062 1027.648438 C 1108.109375 1012.320312 1119.03125 992.601562 1123.5 970.53125 L 903.019531 970.53125 C 907.484375 992.601562 918.40625 1012.320312 933.722656 1027.648438 C 954.078125 1048 982.199219 1060.589844 1013.261719 1060.589844 C 1044.320312 1060.589844 1072.441406 1048 1092.789062 1027.648438 Z M 822.964844 1027.648438 C 838.285156 1012.320312 849.203125 992.601562 853.671875 970.53125 L 633.191406 970.53125 C 637.65625 992.601562 648.574219 1012.328125 663.894531 1027.648438 C 684.25 1048 712.371094 1060.589844 743.429688 1060.589844 C 774.492188 1060.589844 802.609375 1048 822.964844 1027.648438 Z M 587.199219 941.078125 C 587.300781 940.769531 587.410156 940.460938 587.53125 940.148438 L 587.535156 940.140625 Z M 2050.53125 431.539062 L 1877.941406 431.539062 L 1878.109375 432.390625 L 1878.550781 434.589844 L 1878.800781 435.859375 L 1879.160156 437.648438 L 1879.5 439.351562 L 1879.769531 440.71875 L 1880.199219 442.859375 L 1880.390625 443.820312 L 1880.898438 446.390625 L 1881.011719 446.921875 L 1881.609375 449.929688 L 1881.628906 450.039062 L 1882.25 453.171875 L 1882.320312 453.5 L 1882.878906 456.308594 L 1883.03125 457.078125 L 1883.511719 459.46875 L 1883.75 460.671875 L 1884.140625 462.640625 L 1884.46875 464.289062 L 1884.769531 465.820312 L 1885.191406 467.921875 L 1885.410156 469.011719 L 1885.921875 471.558594 L 1886.050781 472.21875 L 1886.148438 472.738281 L 1887.121094 477.601562 L 1887.328125 478.671875 L 1887.378906 478.898438 L 1887.96875 481.910156 L 1888.109375 482.578125 L 1888.621094 485.160156 L 1888.851562 486.289062 L 1889.269531 488.421875 L 1889.589844 490.011719 L 1889.921875 491.699219 L 1890.328125 493.738281 L 1890.570312 494.980469 L 1891.820312 501.238281 L 1891.890625 501.578125 L 1892.550781 504.890625 L 1892.570312 505.011719 L 1893.210938 508.210938 L 1893.320312 508.789062 L 1893.871094 511.550781 L 1894.078125 512.589844 L 1894.53125 514.890625 L 1894.828125 516.390625 L 1895.199219 518.238281 L 1895.589844 520.210938 L 1895.871094 521.601562 L 1896.351562 524.039062 L 1896.53125 524.960938 L 1897.109375 527.878906 L 1897.199219 528.339844 L 1897.878906 531.71875 L 1897.878906 531.730469 L 1898.550781 535.109375 L 1898.640625 535.589844 L 1899.230469 538.511719 L 1899.410156 539.449219 L 1899.898438 541.921875 L 1900.179688 543.328125 L 1900.578125 545.328125 L 1900.949219 547.21875 L 1901.261719 548.75 L 1901.730469 551.109375 L 1901.941406 552.171875 L 1902.5 555.019531 L 1902.621094 555.609375 L 1903.28125 558.929688 L 1903.300781 559.039062 L 1903.980469 562.488281 L 1904.058594 562.851562 L 1904.671875 565.941406 L 1904.828125 566.769531 L 1905.351562 569.390625 L 1905.609375 570.699219 L 1906.039062 572.851562 L 1906.398438 574.640625 L 1906.730469 576.308594 L 1907.179688 578.589844 L 1907.410156 579.78125 L 1907.960938 582.539062 L 1908.109375 583.261719 L 1908.75 586.5 L 1908.789062 586.730469 L 1909.480469 590.210938 L 1909.53125 590.460938 L 1910.179688 593.699219 L 1910.320312 594.421875 L 1910.871094 597.191406 L 1911.109375 598.390625 L 1911.558594 600.679688 L 1911.898438 602.371094 L 1912.25 604.179688 L 1912.679688 606.351562 L 1912.949219 607.671875 L 1913.46875 610.328125 L 1913.640625 611.171875 L 1914.261719 614.320312 L 1914.339844 614.679688 L 1915.03125 618.179688 L 1915.050781 618.300781 L 1915.730469 621.691406 L 1915.851562 622.289062 L 1916.421875 625.199219 L 1916.640625 626.289062 L 1917.121094 628.710938 L 1917.429688 630.28125 L 1917.808594 632.21875 L 1918.21875 634.28125 L 1918.511719 635.730469 L 1919.019531 638.269531 L 1919.210938 639.238281 L 1919.808594 642.269531 L 1919.898438 642.761719 L 1920.601562 646.269531 L 1976 925.660156 L 2197.46875 925.660156 L 2165.78125 818.878906 C 2152.550781 774.238281 2139.308594 729.589844 2126.03125 684.96875 L 2114.011719 644.558594 C 2094.828125 580.058594 2075.679688 515.671875 2050.53125 431.539062 Z M 1832.199219 431.539062 L 1658.878906 431.539062 L 1658.960938 432.398438 L 1659.238281 435.148438 L 1659.359375 436.371094 L 1659.601562 438.761719 L 1659.761719 440.339844 L 1659.960938 442.371094 L 1660.160156 444.308594 L 1660.320312 445.988281 L 1660.558594 448.28125 L 1660.691406 449.601562 L 1660.949219 452.25 L 1661.050781 453.210938 L 1661.351562 456.21875 L 1661.410156 456.820312 L 1661.75 460.191406 L 1661.769531 460.429688 L 1662.140625 464.039062 L 1662.148438 464.160156 L 1662.5 467.660156 L 1662.550781 468.128906 L 1662.859375 471.269531 L 1662.941406 472.101562 L 1663.21875 474.878906 L 1663.339844 476.070312 L 1663.578125 478.488281 L 1663.738281 480.039062 L 1663.949219 482.101562 L 1664.140625 484.011719 L 1664.308594 485.710938 L 1664.53125 487.980469 L 1664.671875 489.320312 L 1664.929688 491.949219 L 1665.03125 492.941406 L 1665.328125 495.921875 L 1665.390625 496.550781 L 1665.71875 499.898438 L 1665.75 500.160156 L 1666.109375 503.769531 L 1666.121094 503.871094 L 1666.46875 507.378906 L 1666.519531 507.839844 L 1666.828125 510.988281 L 1666.910156 511.808594 L 1667.191406 514.601562 L 1667.308594 515.78125 L 1667.550781 518.21875 L 1667.699219 519.75 L 1667.910156 521.828125 L 1668.101562 523.71875 L 1668.269531 525.441406 L 1668.5 527.691406 L 1668.628906 529.050781 L 1668.890625 531.660156 L 1668.988281 532.660156 L 1669.289062 535.628906 L 1669.351562 536.269531 L 1669.679688 539.601562 L 1669.710938 539.890625 L 1670.070312 543.5 L 1670.078125 543.570312 L 1670.429688 547.109375 L 1670.46875 547.539062 L 1670.789062 550.71875 L 1670.871094 551.511719 L 1671.148438 554.328125 L 1671.261719 555.480469 L 1671.511719 557.941406 L 1671.660156 559.449219 L 1671.871094 561.550781 L 1672.050781 563.421875 L 1672.230469 565.171875 L 1672.449219 567.390625 L 1672.578125 568.78125 L 1672.839844 571.359375 L 1672.941406 572.390625 L 1673.238281 575.328125 L 1673.300781 576 L 1673.628906 579.300781 L 1673.660156 579.609375 L 1674.019531 583.21875 L 1674.019531 583.269531 L 1674.378906 586.828125 L 1674.421875 587.238281 L 1674.738281 590.441406 L 1674.808594 591.210938 L 1675.101562 594.050781 L 1675.210938 595.179688 L 1675.449219 597.671875 L 1675.601562 599.148438 L 1675.808594 601.28125 L 1675.988281 603.121094 L 1676.171875 604.890625 L 1676.390625 607.089844 L 1676.53125 608.5 L 1676.78125 611.058594 L 1676.890625 612.109375 L 1677.179688 615.03125 L 1677.238281 615.71875 L 1677.570312 618.988281 L 1677.601562 619.328125 L 1677.960938 622.941406 L 1677.960938 622.960938 L 1678.320312 626.550781 L 1678.359375 626.929688 L 1678.679688 630.160156 L 1678.75 630.898438 L 1679.039062 633.769531 L 1679.140625 634.871094 L 1679.390625 637.378906 L 1679.539062 638.839844 L 1679.75 640.988281 L 1679.929688 642.808594 L 1680.109375 644.601562 L 1680.320312 646.769531 L 1680.46875 648.210938 L 1680.71875 650.738281 L 1680.820312 651.820312 L 1681.109375 654.710938 L 1681.179688 655.429688 L 1681.5 658.679688 L 1681.539062 659.039062 L 1681.898438 662.648438 L 1707.96875 925.660156 L 1930.300781 925.660156 L 1876.609375 654.859375 L 1875.949219 651.558594 L 1875.910156 651.320312 L 1875.300781 648.269531 L 1875.210938 647.789062 L 1874.648438 644.96875 L 1874.5 644.261719 L 1873.988281 641.671875 L 1873.800781 640.71875 L 1873.339844 638.371094 L 1872.679688 635.070312 L 1872.398438 633.640625 L 1872.03125 631.769531 L 1871.699219 630.101562 L 1871.371094 628.460938 L 1870.988281 626.558594 L 1870.71875 625.160156 L 1870.289062 623.011719 L 1870.058594 621.851562 L 1869.589844 619.460938 L 1869.398438 618.53125 L 1868.878906 615.898438 L 1868.75 615.21875 L 1868.179688 612.351562 L 1868.089844 611.898438 L 1867.46875 608.78125 L 1867.429688 608.570312 L 1866.769531 605.25 L 1866.761719 605.210938 L 1866.109375 601.921875 L 1866.050781 601.640625 L 1865.441406 598.578125 L 1865.339844 598.058594 L 1864.78125 595.238281 L 1864.628906 594.480469 L 1864.121094 591.890625 L 1863.921875 590.890625 L 1863.449219 588.539062 L 1863.210938 587.300781 L 1862.789062 585.179688 L 1862.488281 583.691406 L 1862.121094 581.820312 L 1861.769531 580.078125 L 1861.449219 578.449219 L 1861.058594 576.46875 L 1860.78125 575.070312 L 1860.339844 572.839844 L 1860.109375 571.691406 L 1859.621094 569.210938 L 1859.429688 568.300781 L 1858.890625 565.570312 L 1858.761719 564.898438 L 1858.171875 561.921875 L 1858.078125 561.5 L 1857.441406 558.261719 L 1857.398438 558.078125 L 1856.730469 554.660156 L 1856.710938 554.589844 L 1856.039062 551.230469 L 1855.980469 550.921875 L 1855.359375 547.789062 L 1855.25 547.230469 L 1854.679688 544.339844 L 1854.511719 543.53125 L 1853.988281 540.890625 L 1853.78125 539.820312 L 1853.300781 537.421875 L 1853.039062 536.101562 L 1852.609375 533.949219 L 1852.300781 532.371094 L 1851.921875 530.460938 L 1851.550781 528.628906 L 1851.21875 526.960938 L 1850.800781 524.871094 L 1850.519531 523.460938 L 1850.058594 521.109375 L 1849.820312 519.941406 L 1849.300781 517.328125 L 1849.121094 516.410156 L 1848.550781 513.53125 L 1848.421875 512.871094 L 1847.789062 509.730469 L 1847.710938 509.320312 L 1847.03125 505.910156 L 1847 505.761719 L 1846.289062 502.179688 L 1846.269531 502.070312 L 1845.570312 498.589844 L 1845.5 498.230469 L 1844.859375 494.988281 L 1844.730469 494.359375 L 1844.140625 491.371094 L 1843.960938 490.488281 L 1843.410156 487.75 L 1843.179688 486.589844 L 1842.691406 484.101562 L 1842.398438 482.679688 L 1841.960938 480.449219 L 1841.621094 478.761719 L 1841.230469 476.78125 L 1840.839844 474.808594 L 1840.488281 473.089844 L 1840.050781 470.859375 L 1839.761719 469.398438 L 1839.25 466.878906 L 1839.011719 465.679688 L 1838.460938 462.890625 L 1838.269531 461.949219 L 1837.660156 458.871094 L 1837.519531 458.210938 L 1836.851562 454.851562 L 1836.769531 454.449219 L 1836.039062 450.800781 L 1836.019531 450.671875 L 1835.261719 446.878906 L 1835.230469 446.730469 L 1834.5 443.070312 L 1834.421875 442.648438 L 1833.738281 439.238281 L 1833.601562 438.539062 L 1832.96875 435.398438 L 1832.769531 434.421875 Z M 1395.558594 662.628906 C 1395.558594 570.648438 1395.558594 480.820312 1395.519531 431.539062 L 1221.640625 431.539062 L 1196.929688 680.851562 C 1192.46875 725.800781 1188.050781 770.78125 1183.640625 815.761719 L 1183.429688 817.859375 L 1183.21875 819.960938 L 1183.019531 822.058594 C 1179.640625 856.398438 1176.269531 890.738281 1172.878906 925.070312 L 1172.820312 925.660156 L 1395.558594 925.660156 Z M 1613.910156 431.539062 L 1440.230469 431.539062 C 1440.421875 547.5 1440.441406 609.25 1440.441406 667.769531 L 1440.441406 925.660156 L 1663.019531 925.660156 L 1637.378906 667.03125 L 1637.011719 663.351562 L 1636.980469 663.03125 L 1636.648438 659.671875 L 1636.578125 659.039062 L 1636.28125 656 L 1636.191406 655.050781 L 1635.921875 652.320312 L 1635.789062 651.050781 L 1635.550781 648.640625 L 1635.398438 647.058594 L 1635.191406 644.960938 L 1635 643.058594 L 1634.820312 641.28125 L 1634.601562 639.070312 L 1634.460938 637.601562 L 1634.210938 635.070312 L 1634.089844 633.929688 L 1633.808594 631.078125 L 1633.730469 630.25 L 1633.410156 627.078125 L 1633.359375 626.570312 L 1633.019531 623.089844 L 1633 622.890625 L 1632.628906 619.210938 L 1632.621094 619.101562 L 1632.269531 615.53125 L 1632.230469 615.101562 L 1631.898438 611.851562 L 1631.828125 611.101562 L 1631.539062 608.171875 L 1631.429688 607.109375 L 1631.171875 604.488281 L 1631.039062 603.109375 L 1630.808594 600.820312 L 1630.640625 599.121094 L 1630.441406 597.140625 L 1630.238281 595.121094 L 1630.078125 593.460938 L 1629.851562 591.128906 L 1629.710938 589.78125 L 1629.449219 587.128906 L 1629.351562 586.101562 L 1629.050781 583.128906 L 1628.980469 582.421875 L 1628.660156 579.140625 L 1628.621094 578.738281 L 1628.261719 575.140625 L 1628.25 575.058594 L 1627.878906 571.378906 L 1627.859375 571.148438 L 1627.519531 567.699219 L 1627.46875 567.148438 L 1627.148438 564.019531 L 1627.070312 563.148438 L 1626.789062 560.339844 L 1626.671875 559.160156 L 1626.421875 556.660156 L 1626.269531 555.160156 L 1626.050781 552.980469 L 1625.878906 551.171875 L 1625.691406 549.300781 L 1625.480469 547.171875 L 1625.320312 545.621094 L 1625.078125 543.171875 L 1624.960938 541.941406 L 1624.679688 539.179688 L 1624.589844 538.261719 L 1624.28125 535.179688 L 1624.21875 534.578125 L 1623.878906 531.179688 L 1623.859375 530.898438 L 1623.488281 527.21875 L 1623.488281 527.191406 L 1623.121094 523.539062 L 1623.089844 523.191406 L 1622.761719 519.859375 L 1622.691406 519.191406 L 1622.390625 516.179688 L 1622.289062 515.199219 L 1622.019531 512.5 L 1621.890625 511.199219 L 1621.648438 508.820312 L 1621.488281 507.210938 L 1621.289062 505.140625 L 1621.089844 503.210938 L 1620.921875 501.460938 L 1620.699219 499.210938 L 1620.550781 497.78125 L 1620.300781 495.21875 L 1620.179688 494.101562 L 1619.898438 491.21875 L 1619.820312 490.421875 L 1619.5 487.21875 L 1619.449219 486.738281 L 1619.101562 483.230469 L 1619.078125 483.058594 L 1618.710938 479.378906 L 1618.699219 479.230469 L 1618.339844 475.699219 L 1618.300781 475.230469 L 1617.980469 472.019531 L 1617.898438 471.238281 L 1617.609375 468.339844 L 1617.5 467.238281 L 1617.238281 464.660156 L 1617.101562 463.238281 L 1616.871094 460.980469 L 1616.691406 459.25 L 1616.5 457.300781 L 1616.289062 455.25 L 1616.128906 453.621094 L 1615.890625 451.25 L 1615.761719 449.941406 L 1615.488281 447.261719 L 1615.390625 446.261719 L 1615.089844 443.261719 L 1615.019531 442.578125 L 1614.691406 439.269531 L 1614.648438 438.898438 L 1614.289062 435.269531 L 1614.28125 435.21875 Z M 1176.679688 431.539062 L 1003.328125 431.539062 L 953.496094 682.949219 C 944.589844 727.878906 935.714844 772.828125 926.84375 817.78125 L 926.429688 819.890625 L 926.011719 821.988281 C 919.511719 854.941406 913.003906 887.898438 906.480469 920.851562 L 906.066406 922.949219 L 905.648438 925.050781 L 905.527344 925.660156 L 1127.859375 925.660156 L 1127.878906 925.449219 L 1128.039062 923.878906 L 1128.089844 923.378906 L 1128.210938 922.089844 L 1128.289062 921.308594 L 1128.390625 920.308594 L 1128.5 919.230469 L 1128.570312 918.519531 L 1128.699219 917.160156 L 1128.738281 916.730469 L 1128.910156 915.078125 L 1128.921875 914.949219 L 1129.101562 913.160156 L 1129.109375 913.011719 L 1129.269531 911.378906 L 1129.320312 910.941406 L 1129.449219 909.589844 L 1129.519531 908.859375 L 1129.628906 907.808594 L 1129.730469 906.789062 L 1129.800781 906.019531 L 1129.929688 904.710938 L 1129.980469 904.238281 L 1130.140625 902.640625 L 1130.148438 902.449219 L 1130.328125 900.660156 L 1130.339844 900.570312 L 1130.511719 898.878906 L 1130.539062 898.488281 L 1130.679688 897.089844 L 1130.75 896.421875 L 1130.859375 895.308594 L 1130.949219 894.339844 L 1131.039062 893.519531 L 1131.160156 892.269531 L 1131.210938 891.738281 L 1131.359375 890.191406 L 1131.390625 889.949219 L 1131.558594 888.160156 L 1131.570312 888.121094 L 1131.738281 886.378906 L 1131.769531 886.050781 L 1131.910156 884.589844 L 1131.980469 883.96875 L 1132.089844 882.808594 L 1132.179688 881.898438 L 1132.269531 881.019531 L 1132.390625 879.828125 L 1132.441406 879.238281 L 1132.589844 877.75 L 1132.621094 877.449219 L 1132.789062 875.679688 L 1132.789062 875.660156 L 1132.96875 873.878906 L 1133 873.601562 L 1133.148438 872.089844 L 1133.199219 871.53125 L 1133.320312 870.308594 L 1133.410156 869.449219 L 1133.5 868.519531 L 1133.609375 867.378906 L 1133.671875 866.738281 L 1133.808594 865.308594 L 1133.851562 864.949219 L 1134.019531 863.230469 L 1134.019531 863.160156 L 1134.199219 861.378906 L 1134.21875 861.160156 L 1134.378906 859.589844 L 1134.429688 859.078125 L 1134.550781 857.808594 L 1134.628906 857.011719 L 1134.730469 856.019531 L 1134.828125 854.929688 L 1134.898438 854.230469 L 1135.039062 852.859375 L 1135.078125 852.449219 L 1135.238281 850.78125 L 1135.25 850.660156 L 1135.429688 848.878906 L 1135.449219 848.710938 L 1135.609375 847.089844 L 1135.648438 846.640625 L 1135.78125 845.308594 L 1135.851562 844.558594 L 1135.960938 843.519531 L 1136.058594 842.488281 L 1136.128906 841.730469 L 1136.261719 840.410156 L 1136.308594 839.949219 L 1136.46875 838.339844 L 1136.480469 838.160156 L 1136.660156 836.378906 L 1136.671875 836.269531 L 1136.828125 834.589844 L 1136.871094 834.191406 L 1137.011719 832.800781 L 1137.078125 832.121094 L 1137.179688 831.019531 L 1137.28125 830.039062 L 1137.359375 829.230469 L 1137.480469 827.96875 L 1137.539062 827.449219 L 1137.691406 825.890625 L 1137.710938 825.660156 L 1137.890625 823.871094 L 1137.890625 823.820312 L 1138.058594 822.089844 L 1138.089844 821.75 L 1138.238281 820.300781 L 1138.300781 819.671875 L 1138.410156 818.519531 L 1138.5 817.601562 L 1138.589844 816.730469 L 1138.710938 815.519531 L 1138.761719 814.949219 L 1138.910156 813.449219 L 1138.941406 813.160156 L 1139.109375 811.371094 C 1143.53125 766.398438 1147.949219 721.421875 1152.410156 676.46875 Z M 957.628906 431.539062 L 785.308594 431.539062 L 709.964844 684.96875 C 696.632812 729.789062 683.332031 774.640625 670.039062 819.480469 L 638.535156 925.660156 L 859.835938 925.660156 L 860.1875 923.890625 L 860.195312 923.839844 L 860.554688 922.019531 L 860.597656 921.800781 L 860.914062 920.199219 L 861.011719 919.71875 L 861.273438 918.378906 L 861.425781 917.628906 L 861.636719 916.558594 L 861.835938 915.550781 L 861.996094 914.75 L 862.25 913.460938 L 862.355469 912.921875 L 862.664062 911.378906 L 862.714844 911.109375 L 863.074219 909.289062 L 863.4375 907.46875 L 863.488281 907.210938 L 863.796875 905.648438 L 863.898438 905.121094 L 864.15625 903.828125 L 864.3125 903.039062 L 864.515625 902.011719 L 864.726562 900.949219 L 864.875 900.191406 L 865.136719 898.871094 L 865.238281 898.371094 L 865.550781 896.78125 L 865.597656 896.550781 L 865.953125 894.730469 L 865.960938 894.699219 L 866.316406 892.910156 L 866.375 892.609375 L 866.675781 891.089844 L 866.785156 890.53125 L 867.035156 889.269531 L 867.199219 888.441406 L 867.394531 887.449219 L 867.613281 886.359375 L 867.753906 885.628906 L 868.023438 884.269531 L 868.113281 883.808594 L 868.4375 882.179688 L 868.472656 881.988281 L 868.835938 880.171875 L 868.847656 880.101562 L 869.195312 878.351562 L 869.261719 878.011719 L 869.554688 876.53125 L 869.671875 875.929688 L 869.914062 874.710938 L 870.085938 873.839844 L 870.273438 872.890625 L 870.496094 871.761719 L 870.632812 871.070312 L 870.910156 869.671875 L 870.992188 869.25 L 871.320312 867.589844 L 871.351562 867.429688 L 871.710938 865.609375 L 871.734375 865.5 L 872.070312 863.789062 L 872.144531 863.421875 L 872.429688 861.96875 L 872.558594 861.328125 L 872.789062 860.148438 L 873.148438 858.328125 L 873.378906 857.160156 L 873.507812 856.511719 L 873.792969 855.070312 L 873.867188 854.691406 L 874.203125 852.988281 L 874.226562 852.871094 L 874.585938 851.050781 L 874.617188 850.898438 L 874.945312 849.230469 L 875.027344 848.820312 L 875.304688 847.410156 L 875.4375 846.730469 L 875.664062 845.589844 L 875.851562 844.648438 L 876.023438 843.769531 L 876.261719 842.558594 L 876.382812 841.949219 L 876.675781 840.480469 L 876.742188 840.128906 L 877.085938 838.390625 L 877.101562 838.308594 L 877.460938 836.488281 L 877.496094 836.300781 L 877.820312 834.671875 L 877.910156 834.21875 L 878.179688 832.851562 L 878.320312 832.128906 L 878.539062 831.03125 L 878.734375 830.050781 L 878.898438 829.210938 L 879.144531 827.960938 L 879.257812 827.390625 L 879.554688 825.878906 L 879.617188 825.570312 L 879.96875 823.789062 L 879.976562 823.75 L 880.335938 821.929688 L 880.378906 821.710938 L 880.695312 820.109375 L 880.789062 819.621094 L 881.054688 818.289062 L 881.203125 817.539062 L 881.414062 816.46875 L 881.613281 815.449219 L 881.769531 814.648438 L 882.023438 813.359375 L 882.128906 812.828125 L 882.4375 811.28125 L 882.488281 811.019531 L 882.847656 809.191406 C 891.71875 764.238281 900.59375 719.289062 909.503906 674.359375 Z M 1957.789062 2403.84375 L 2171.53125 2403.84375 L 2171.53125 1806.480469 L 1957.789062 1806.480469 Z M 1699.171875 2403.84375 L 1912.921875 2403.84375 L 1912.921875 1806.480469 L 1699.171875 1806.480469 Z M 1440.558594 2403.84375 L 1654.300781 2403.84375 L 1654.300781 1806.480469 L 1440.558594 1806.480469 Z M 1181.941406 2403.84375 L 1395.679688 2403.84375 L 1395.679688 1806.480469 L 1181.941406 1806.480469 Z M 923.324219 2403.84375 L 1137.070312 2403.84375 L 1137.070312 1806.480469 L 923.324219 1806.480469 L 923.324219 2403.84375 "/>
</svg>
