<svg width="100%" height="100%" viewBox="0 0 17 15" fill="none" xmlns="http://www.w3.org/2000/svg">
<path d="M1.21001 6.59C5.73001 4.62 8.74 3.32 10.25 2.7C14.55 0.909997 15.45 0.599996 16.03 0.589996C16.16 0.589996 16.44 0.619997 16.63 0.769997C16.79 0.899997 16.83 1.07 16.85 1.19C16.87 1.31 16.9 1.59 16.88 1.8C16.65 4.25 15.64 10.2 15.12 12.94C14.9 14.1 14.47 14.49 14.06 14.53C13.16 14.61 12.48 13.93 11.6 13.36C10.24 12.47 9.46 11.91 8.14 11.04C6.61 10.03 7.6 9.48 8.47 8.57C8.7 8.33 12.66 4.73 12.74 4.4C12.75 4.36 12.76 4.21 12.67 4.13C12.58 4.05 12.45 4.08 12.35 4.1C12.21 4.13 10.03 5.57 5.81 8.42C5.19 8.85 4.63001 9.05 4.13001 9.04C3.58001 9.03 2.51 8.73 1.72 8.47C0.750004 8.16 -0.020004 7.99 0.039996 7.45C0.079996 7.17 0.460005 6.89 1.19001 6.59" fill="currentColor"/>
</svg>
