<svg width="100%" height="100%" viewBox="0 0 17 11" fill="none" xmlns="http://www.w3.org/2000/svg">
<path d="M9.03999 10.54C3.57999 10.54 0.469996 6.80001 0.339996 0.570007H3.07001C3.16001 5.14001 5.18 7.08001 6.77 7.48001V0.570007H9.34V4.51001C10.92 4.34001 12.57 2.54001 13.13 0.570007H15.7C15.26 2.74001 14.09 4.39001 12.2 5.54001C13.21 6.04001 14.07 6.73001 14.79 7.60001C15.5 8.47001 16.01 9.45001 16.3 10.54H13.47C13.2 9.58001 12.69 8.78001 11.94 8.14001C11.19 7.49001 10.32 7.11001 9.34 6.98001V10.54H9.03H9.03999Z" fill="currentColor"/>
</svg>
